<svg id="Layer_1" data-name="Layer 1" xmlns="http://www.w3.org/2000/svg" viewBox="0 0 486.29 171.14"><defs><style>.cls-1{fill:#fff}.cls-2{fill:none}</style></defs><title>fb-logo</title><path class="cls-1" d="M78.95 60.2c-4.58 0-5.91 2-5.91 6.52v7.44h12.22L84 86.18H73v36.47H58.37V86.18h-9.88v-12h9.88v-7.25c0-12.12 4.89-18.54 18.54-18.54a69 69 0 0 1 8.56.51v11.3zm7.33 36.68c0-13.55 6.42-23.74 19.86-23.74 7.33 0 11.82 3.77 14 8.46v-7.44h14.06v48.49h-14.1v-7.33c-2 4.69-6.62 8.35-14 8.35-13.45 0-19.86-10.19-19.86-23.73zm14.67 3.26c0 7.23 2.65 12 9.47 12 6 0 9.07-4.38 9.07-11.31V96c0-6.93-3.06-11.31-9.07-11.31-6.83 0-9.47 4.79-9.47 12zm63.76-27c5.7 0 11.1 1.22 14.06 3.26l-3.26 10.39a23.09 23.09 0 0 0-9.78-2.24c-7.95 0-11.41 4.58-11.41 12.43v2.85c0 7.84 3.46 12.43 11.41 12.43a23.08 23.08 0 0 0 9.78-2.24l3.26 10.39c-3 2-8.35 3.26-14.06 3.26-17.22 0-25.06-9.27-25.06-24.14v-2.25c0-14.87 7.85-24.14 25.06-24.14zm15.99 27.1V96c0-13.75 7.84-22.82 23.84-22.82 15.08 0 21.7 9.17 21.7 22.61v7.74h-30.87c.31 6.62 3.26 9.58 11.41 9.58a41.67 41.67 0 0 0 15.59-3L225 120.2c-3.87 2-11.82 3.57-18.85 3.57-18.52 0-25.45-9.27-25.45-23.53zm14.67-6.32h17.73V92.7c0-5.3-2.14-9.47-8.56-9.47-6.62 0-9.17 4.17-9.17 10.69zm85.26 6.01c0 13.55-6.52 23.73-20 23.73-7.33 0-12.43-3.67-14.46-8.35v7.33h-13.82V49.81L247 48.49v32.39c2.14-4.28 6.83-7.74 13.65-7.74 13.45 0 20 10.19 20 23.74zM266 96.57c0-6.83-2.65-11.92-9.68-11.92-6 0-9.27 4.28-9.27 11.21V101c0 6.93 3.26 11.21 9.27 11.21 7 0 9.68-5.09 9.68-11.92zm19.52 3.06v-2.45c0-14 7.95-24 24.14-24s24.14 10.08 24.14 24v2.44c0 14-7.95 24-24.14 24s-24.14-10.04-24.14-23.99zm33.62-3.46c0-6.42-2.65-11.51-9.47-11.51s-9.47 5.09-9.47 11.51v4.48c0 6.42 2.65 11.51 9.47 11.51s9.47-5.09 9.47-11.51zm19.55 3.46v-2.45c0-14 7.95-24 24.14-24S387 83.23 387 97.18v2.44c0 14-7.95 24-24.14 24s-24.17-10.04-24.17-23.99zm33.62-3.46c0-6.42-2.65-11.51-9.47-11.51s-9.47 5.09-9.47 11.51v4.48c0 6.42 2.65 11.51 9.47 11.51s9.47-5.09 9.47-11.51zm34.83 1.11l14.47-23.12h15.59L422 98.1l15.79 24.55h-15.57l-15.08-23.74v23.74h-14.67V49.81l14.67-1.32z"/><path class="cls-2" d="M0 0h486.29v171.14H0z"/></svg>