<svg id="Layer_1" data-name="Layer 1" xmlns="http://www.w3.org/2000/svg" viewBox="0 0 486.29 171.14"><defs><style>.cls-1{fill:#fff;}.cls-2{fill:none;}</style></defs><title>fb-logo</title><path class="cls-1" d="M78.95,60.2c-4.58,0-5.91,2-5.91,6.52v7.44H85.26L84,86.18H73v36.47H58.37V86.18H48.49v-12h9.88V66.93c0-12.12,4.89-18.54,18.54-18.54a69,69,0,0,1,8.56.51V60.2Z"/><path class="cls-1" d="M86.28,96.88c0-13.55,6.42-23.74,19.86-23.74,7.33,0,11.82,3.77,14,8.46V74.16h14.06v48.49H120.1v-7.33c-2,4.69-6.62,8.35-14,8.35-13.45,0-19.86-10.19-19.86-23.73Zm14.67,3.26c0,7.23,2.65,12,9.47,12,6,0,9.07-4.38,9.07-11.31V96c0-6.93-3.06-11.31-9.07-11.31-6.83,0-9.47,4.79-9.47,12Z"/><path class="cls-1" d="M164.71,73.14c5.7,0,11.1,1.22,14.06,3.26l-3.26,10.39a23.09,23.09,0,0,0-9.78-2.24c-7.95,0-11.41,4.58-11.41,12.43v2.85c0,7.84,3.46,12.43,11.41,12.43a23.08,23.08,0,0,0,9.78-2.24l3.26,10.39c-3,2-8.35,3.26-14.06,3.26-17.22,0-25.06-9.27-25.06-24.14V97.28C139.65,82.41,147.5,73.14,164.71,73.14Z"/><path class="cls-1" d="M180.7,100.24V96c0-13.75,7.84-22.82,23.84-22.82,15.08,0,21.7,9.17,21.7,22.61v7.74H195.37c.31,6.62,3.26,9.58,11.41,9.58a41.67,41.67,0,0,0,15.59-3L225,120.2c-3.87,2-11.82,3.57-18.85,3.57C187.63,123.77,180.7,114.5,180.7,100.24Zm14.67-6.32H213.1V92.7c0-5.3-2.14-9.47-8.56-9.47C197.92,83.23,195.37,87.4,195.37,93.92Z"/><path class="cls-1" d="M280.63,99.93c0,13.55-6.52,23.73-20,23.73-7.33,0-12.43-3.67-14.46-8.35v7.33H232.35V49.81L247,48.49V80.88c2.14-4.28,6.83-7.74,13.65-7.74,13.45,0,20,10.19,20,23.74ZM266,96.57c0-6.83-2.65-11.92-9.68-11.92-6,0-9.27,4.28-9.27,11.21V101c0,6.93,3.26,11.21,9.27,11.21,7,0,9.68-5.09,9.68-11.92Z"/><path class="cls-1" d="M285.52,99.63V97.18c0-14,7.95-24,24.14-24s24.14,10.08,24.14,24v2.44c0,14-7.95,24-24.14,24S285.52,113.58,285.52,99.63Zm33.62-3.46c0-6.42-2.65-11.51-9.47-11.51s-9.47,5.09-9.47,11.51v4.48c0,6.42,2.65,11.51,9.47,11.51s9.47-5.09,9.47-11.51Z"/><path class="cls-1" d="M338.69,99.63V97.18c0-14,7.95-24,24.14-24S387,83.23,387,97.18v2.44c0,14-7.95,24-24.14,24S338.69,113.58,338.69,99.63Zm33.62-3.46c0-6.42-2.65-11.51-9.47-11.51s-9.47,5.09-9.47,11.51v4.48c0,6.42,2.65,11.51,9.47,11.51s9.47-5.09,9.47-11.51Z"/><path class="cls-1" d="M407.14,97.28l14.47-23.12h15.59L422,98.1l15.79,24.55H422.22L407.14,98.91v23.74H392.47V49.81l14.67-1.32Z"/><rect class="cls-2" width="486.29" height="171.14"/></svg>